<?xml version="1.0" encoding="UTF-8" standalone="no"?>
<svg width="58px" height="86px" viewBox="0 0 58 86" version="1.1" xmlns="http://www.w3.org/2000/svg" xmlns:xlink="http://www.w3.org/1999/xlink">
    <!-- Generator: Sketch 3.7.2 (28276) - http://www.bohemiancoding.com/sketch -->
    <title>nav-logo</title>
    <desc>Created with Sketch.</desc>
    <defs></defs>
    <g id="Page-1" stroke="none" stroke-width="1" fill="none" fill-rule="evenodd">
        <g id="1.1-Home" transform="translate(-60.000000, -27.000000)" fill="#222222">
            <g id="nav-logo" transform="translate(60.000000, 27.000000)">
                <g id="Shape">
                    <path d="M14.6892618,80.7114182 L19.4605682,73.2045629 L50.3659098,73.2045629 L47.5985522,68.4078096 L22.4823955,68.4078096 L58,12.3004278 L44.2713612,12.3004278 L52.0644949,7.10542736e-15 L3.5307667,7.10542736e-15 L6.35856093,4.90490293 L43.1994077,4.90490293 L38.5171657,12.3004278 L10.6336514,12.3004278 L13.4614457,17.198969 L35.4094549,17.198969 L0,73.2045629 L13.7127345,73.2045629 L5.9355051,85.5081715 L57.4656137,85.5081715 L54.6950751,80.7114182 L14.6892618,80.7114182 L14.6892618,80.7114182 Z M8.75375672,68.4109905 L41.1700121,17.198969 L49.1221893,17.198969 L16.7345618,68.4109905 L8.76011846,68.4109905 L8.75375672,68.4109905 Z"></path>
                </g>
            </g>
        </g>
    </g>
</svg>